<svg id="Capa_1" data-name="Capa 1" xmlns="http://www.w3.org/2000/svg" viewBox="0 0 1335 1335"><defs><style>.cls-1,.cls-2{fill:#fff;}.cls-2{font-size:944px;font-family:VladimirScript, Vladimir Script;}</style></defs><path d="M917.5,1628.5a664.94,664.94,0,1,1,259.63-52.42A662.87,662.87,0,0,1,917.5,1628.5Z" transform="translate(-250 -294)"/><path class="cls-1" d="M917.5,295a663.48,663.48,0,0,1,372.65,113.83,668.38,668.38,0,0,1,241.47,293.24,665.66,665.66,0,0,1-61.45,632.08,668.38,668.38,0,0,1-293.24,241.47,665.66,665.66,0,0,1-632.08-61.45,668.38,668.38,0,0,1-241.47-293.24,665.66,665.66,0,0,1,61.45-632.08A668.38,668.38,0,0,1,658.07,347.38,662.22,662.22,0,0,1,917.5,295m0-1C548.85,294,250,592.85,250,961.5S548.85,1629,917.5,1629,1585,1330.15,1585,961.5,1286.15,294,917.5,294Z" transform="translate(-250 -294)"/><text class="cls-2" transform="translate(122 947.07)">F</text></svg>